<svg width="200" height="200" viewBox="0 0 200 200" fill="none" xmlns="http://www.w3.org/2000/svg">
<path d="M100 0C44.7581 0 0 44.7581 0 100C0 155.242 44.7581 200 100 200C155.242 200 200 155.242 200 100C200 44.7581 155.242 0 100 0ZM100 180.645C55.5242 180.645 19.3548 144.476 19.3548 100C19.3548 55.5242 55.5242 19.3548 100 19.3548C144.476 19.3548 180.645 55.5242 180.645 100C180.645 144.476 144.476 180.645 100 180.645ZM100 122.581C86.4516 122.581 73.7097 128.548 65 138.952C61.5726 143.065 62.1371 149.153 66.25 152.581C70.3629 156.008 76.4516 155.484 79.879 151.371C89.879 139.395 110.121 139.395 120.121 151.371C123.387 155.282 129.476 156.169 133.75 152.581C137.863 149.153 138.387 143.065 135 138.952C126.29 128.548 113.548 122.581 100 122.581ZM80.6452 93.5484C84.7984 93.5484 88.6694 90.8468 89.9194 86.6532C91.4516 81.5323 88.5484 76.129 83.4274 74.5968L51.1694 64.9194C46.0081 63.3468 40.6452 66.2903 39.1129 71.4113C37.5806 76.5323 40.4839 81.9355 45.6048 83.4677L56.9758 86.8952C55.7258 88.871 54.8387 91.0887 54.8387 93.5887C54.8387 100.726 60.6048 106.492 67.7419 106.492C74.879 106.492 80.6452 100.685 80.6452 93.5484ZM160.887 71.4113C159.355 66.2903 153.992 63.3871 148.831 64.9194L116.573 74.5968C111.452 76.129 108.548 81.5323 110.081 86.6532C111.331 90.8468 115.202 93.5484 119.355 93.5484C119.355 100.685 125.121 106.452 132.258 106.452C139.395 106.452 145.161 100.685 145.161 93.5484C145.161 91.0484 144.274 88.8306 143.024 86.8548L154.395 83.4274C159.516 81.9355 162.419 76.5323 160.887 71.4113Z" fill="#483D8B"/>
</svg>
