<svg width="200" height="200" viewBox="0 0 200 200" fill="none" xmlns="http://www.w3.org/2000/svg">
<path d="M100 0C44.7581 0 0 44.7581 0 100C0 155.242 44.7581 200 100 200C155.242 200 200 155.242 200 100C200 44.7581 155.242 0 100 0ZM100 180.645C55.5242 180.645 19.3548 144.476 19.3548 100C19.3548 55.5242 55.5242 19.3548 100 19.3548C144.476 19.3548 180.645 55.5242 180.645 100C180.645 144.476 144.476 180.645 100 180.645ZM67.7419 93.5484C74.879 93.5484 80.6452 87.7823 80.6452 80.6452C80.6452 73.5081 74.879 67.7419 67.7419 67.7419C60.6048 67.7419 54.8387 73.5081 54.8387 80.6452C54.8387 87.7823 60.6048 93.5484 67.7419 93.5484ZM132.258 93.5484C139.395 93.5484 145.161 87.7823 145.161 80.6452C145.161 73.5081 139.395 67.7419 132.258 67.7419C125.121 67.7419 119.355 73.5081 119.355 80.6452C119.355 87.7823 125.121 93.5484 132.258 93.5484ZM133.871 122.823C125.484 132.903 113.105 138.71 100 138.71C86.8952 138.71 74.5161 132.944 66.129 122.823C62.7016 118.71 56.5726 118.185 52.5 121.573C48.3871 125 47.8629 131.089 51.25 135.202C63.3468 149.718 81.129 158.024 100 158.024C118.871 158.024 136.653 149.718 148.75 135.202C152.177 131.089 151.613 125 147.5 121.573C143.427 118.185 137.298 118.71 133.871 122.823Z" fill="#483D8B"/>
</svg>
