<svg width="64" height="64" viewBox="0 0 64 64" fill="none" xmlns="http://www.w3.org/2000/svg">
<path d="M32.0303 15.7539C26.8937 15.7539 23.5667 17.8584 20.9547 21.6117C20.4808 22.2925 20.6269 23.226 21.2879 23.7272L24.064 25.8321C24.7315 26.3383 25.6813 26.2199 26.2039 25.5652C27.8159 23.5458 29.0116 22.383 31.5295 22.383C33.5093 22.383 35.958 23.6571 35.958 25.5769C35.958 27.0282 34.76 27.7735 32.8052 28.8695C30.5256 30.1475 27.509 31.7381 27.509 35.7169V36.3468C27.509 37.1998 28.2005 37.8913 29.0535 37.8913H33.7172C34.5702 37.8913 35.2617 37.1998 35.2617 36.3468V35.9753C35.2617 33.2172 43.323 33.1023 43.323 25.6385C43.3231 20.0177 37.4926 15.7539 32.0303 15.7539V15.7539ZM31.3854 39.7871C28.9274 39.7871 26.9276 41.7868 26.9276 44.2449C26.9276 46.7028 28.9274 48.7026 31.3854 48.7026C33.8434 48.7026 35.8432 46.7028 35.8432 44.2448C35.8432 41.7868 33.8434 39.7871 31.3854 39.7871Z" fill="black"/>
<path d="M32 0C14.3226 0 0 14.3226 0 32C0 49.6774 14.3226 64 32 64C49.6774 64 64 49.6774 64 32C64 14.3226 49.6774 0 32 0ZM32 57.8064C17.7419 57.8064 6.19355 46.2581 6.19355 32C6.19355 17.7419 17.7419 6.19355 32 6.19355C46.2581 6.19355 57.8064 17.7419 57.8064 32C57.8064 46.2581 46.2581 57.8064 32 57.8064Z" fill="black"/>
</svg>
