<svg width="68" height="52" viewBox="0 0 68 52" fill="none" xmlns="http://www.w3.org/2000/svg">
<path d="M55.1777 50.9333H44.036C43.1606 50.9333 42.4444 50.217 42.4444 49.3416V44.036C42.4444 43.1606 43.1606 42.4444 44.036 42.4444H55.1777C57.5254 42.4444 59.4221 40.5476 59.4221 38.1999V12.7333C59.4221 10.3856 57.5254 8.48888 55.1777 8.48888H44.036C43.1606 8.48888 42.4444 7.77263 42.4444 6.89721V1.59166C42.4444 0.716249 43.1606 0 44.036 0H55.1777C62.2075 0 67.911 5.70346 67.911 12.7333V38.1999C67.911 45.2298 62.2075 50.9333 55.1777 50.9333ZM48.9437 24.2729L26.6604 1.98958C24.6708 0 21.2222 1.39271 21.2222 4.24444V16.9778H3.18333C1.41923 16.9778 0 18.397 0 20.1611V32.8944C0 34.6585 1.41923 36.0777 3.18333 36.0777H21.2222V48.811C21.2222 51.6628 24.6708 53.0555 26.6604 51.0659L48.9437 28.7826C50.1772 27.5358 50.1772 25.5197 48.9437 24.2729Z" fill="black"/>
</svg>
