<svg width="200" height="200" viewBox="0 0 200 200" fill="none" xmlns="http://www.w3.org/2000/svg">
<path d="M100 0C44.7581 0 0 44.7581 0 100C0 155.242 44.7581 200 100 200C155.242 200 200 155.242 200 100C200 44.7581 155.242 0 100 0ZM100 180.645C55.5242 180.645 19.3548 144.476 19.3548 100C19.3548 55.5242 55.5242 19.3548 100 19.3548C144.476 19.3548 180.645 55.5242 180.645 100C180.645 144.476 144.476 180.645 100 180.645ZM67.7419 93.5484C74.879 93.5484 80.6452 87.7823 80.6452 80.6452C80.6452 73.5081 74.879 67.7419 67.7419 67.7419C60.6048 67.7419 54.8387 73.5081 54.8387 80.6452C54.8387 87.7823 60.6048 93.5484 67.7419 93.5484ZM132.258 67.7419C125.121 67.7419 119.355 73.5081 119.355 80.6452C119.355 87.7823 125.121 93.5484 132.258 93.5484C139.395 93.5484 145.161 87.7823 145.161 80.6452C145.161 73.5081 139.395 67.7419 132.258 67.7419ZM100 119.355C83.7903 119.355 68.5484 126.492 58.1452 138.952C54.7177 143.065 55.2823 149.153 59.3952 152.581C63.5081 155.968 69.5968 155.444 73.0242 151.331C79.7177 143.306 89.5564 138.669 100 138.669C110.444 138.669 120.282 143.266 126.976 151.331C130.242 155.242 136.29 156.129 140.605 152.581C144.718 149.153 145.242 143.065 141.855 138.952C131.452 126.492 116.21 119.355 100 119.355Z" fill="#483D8B"/>
</svg>
